<svg xmlns="http://www.w3.org/2000/svg" width="42.109" height="36.909" viewBox="0 0 42.109 36.909">
  <path id="Path_192" data-name="Path 192" d="M21.895,31.1C10.245,31.1.877,38.772.877,48.237A15.2,15.2,0,0,0,5.571,59.006,20.974,20.974,0,0,1,1.058,66.9a.64.64,0,0,0-.124.72.631.631,0,0,0,.6.393,19.032,19.032,0,0,0,11.584-4.234,25.2,25.2,0,0,0,8.849,1.6c11.65,0,21.018-7.673,21.018-17.063S33.545,31.1,21.895,31.1ZM11.275,50.874a2.614,2.614,0,0,1-2.637-2.562,2.677,2.677,0,0,1,2.637-2.637,2.628,2.628,0,0,1,2.637,2.637A2.525,2.525,0,0,1,11.275,50.874Zm10.62,0a2.549,2.549,0,0,1-2.562-2.562,2.663,2.663,0,0,1,2.562-2.637,2.614,2.614,0,0,1,2.562,2.637A2.5,2.5,0,0,1,21.895,50.874Zm10.472,0a2.614,2.614,0,0,1-2.637-2.562,2.677,2.677,0,0,1,2.637-2.637A2.628,2.628,0,0,1,35,48.311,2.525,2.525,0,0,1,32.367,50.874Z" transform="translate(-0.875 -31.1)" fill="#b8b8b8"/>
</svg>
