<svg xmlns="http://www.w3.org/2000/svg" width="39.045" height="41.425" viewBox="0 0 39.045 41.425">
  <path id="Path_185" data-name="Path 185" d="M53.635,13.479a1.837,1.837,0,0,1-.51,1.99l-3.5,3.188a15.421,15.421,0,0,1,0,4.11l3.5,3.188a1.837,1.837,0,0,1,.51,1.99,20.539,20.539,0,0,1-1.27,2.775l-.38.655A21.318,21.318,0,0,1,50.2,33.909a1.851,1.851,0,0,1-1.982.55l-4.507-1.44a17.7,17.7,0,0,1-3.56,2.063L39.136,39.7a1.94,1.94,0,0,1-1.473,1.44,21.142,21.142,0,0,1-3.511.283,20.693,20.693,0,0,1-3.366-.283,1.94,1.94,0,0,1-1.473-1.44L28.3,35.082a15.9,15.9,0,0,1-3.56-2.063l-4.5,1.44a1.847,1.847,0,0,1-1.983-.55,21.231,21.231,0,0,1-1.789-2.532l-.379-.655a20.18,20.18,0,0,1-1.277-2.775,1.838,1.838,0,0,1,.514-1.99l3.5-3.188a15.7,15.7,0,0,1,0-4.11l-3.5-3.188a1.835,1.835,0,0,1-.514-1.99A20.276,20.276,0,0,1,16.089,10.7l.378-.655a20.96,20.96,0,0,1,1.79-2.528,1.838,1.838,0,0,1,1.983-.551l4.5,1.437A15.56,15.56,0,0,1,28.3,6.346l1.011-4.62A1.836,1.836,0,0,1,30.786.284a20.96,20.96,0,0,1,6.877,0,1.836,1.836,0,0,1,1.473,1.442l1.011,4.62a17.277,17.277,0,0,1,3.56,2.061l4.507-1.437A1.841,1.841,0,0,1,50.2,7.52a20.948,20.948,0,0,1,1.788,2.528l.38.655a20.538,20.538,0,0,1,1.27,2.775ZM34.225,27.185a6.509,6.509,0,1,0-6.473-6.545A6.487,6.487,0,0,0,34.225,27.185Z" transform="translate(-14.702)" fill="#fff"/>
</svg>
